<?xml version="1.0" encoding="UTF-8" standalone="no"?>
<svg
   xmlns:dc="http://purl.org/dc/elements/1.1/"
   xmlns:cc="http://creativecommons.org/ns#"
   xmlns:rdf="http://www.w3.org/1999/02/22-rdf-syntax-ns#"
   xmlns:svg="http://www.w3.org/2000/svg"
   xmlns="http://www.w3.org/2000/svg"
   xmlns:sodipodi="http://sodipodi.sourceforge.net/DTD/sodipodi-0.dtd"
   xmlns:inkscape="http://www.inkscape.org/namespaces/inkscape"
   width="1680"
   height="830"
   viewBox="0 0 1680 830"
   fill="none"
   version="1.1"
   id="svg23"
   sodipodi:docname="LG-logo.svg"
   inkscape:version="1.0.2-2 (e86c870879, 2021-01-15)">
  <metadata
     id="metadata27">
    <rdf:RDF>
      <cc:Work
         rdf:about="">
        <dc:format>image/svg+xml</dc:format>
        <dc:type
           rdf:resource="http://purl.org/dc/dcmitype/StillImage" />
      </cc:Work>
    </rdf:RDF>
  </metadata>
  <sodipodi:namedview
     pagecolor="#ffffff"
     bordercolor="#666666"
     borderopacity="1"
     objecttolerance="10"
     gridtolerance="10"
     guidetolerance="10"
     inkscape:pageopacity="0"
     inkscape:pageshadow="2"
     inkscape:window-width="2560"
     inkscape:window-height="1377"
     id="namedview25"
     showgrid="false"
     inkscape:zoom="0.38406754"
     inkscape:cx="819.77746"
     inkscape:cy="-31.747752"
     inkscape:window-x="1912"
     inkscape:window-y="-8"
     inkscape:window-maximized="1"
     inkscape:current-layer="svg23" />
  <rect
     width="1680"
     height="830"
     fill="white"
     id="rect2" />
  <g
     clip-path="url(#clip0_74_1399)"
     id="g16"
     transform="matrix(1.9505881,0,0,1.9505881,-829.46003,-376.905)">
    <path
       d="m 913.807,455.947 h 96.653 v 39.318 H 867.159 V 293.368 h 46.648 z"
       fill="#6b6c6b"
       id="path4" />
    <path
       d="m 1113.03,418.294 h 37.98 v 35.33 c -6.97,2.658 -20.65,5.317 -33.62,5.317 -42.01,0 -55.98,-21.325 -55.98,-64.631 0,-41.329 13.3,-65.65 55.27,-65.65 23.39,0 36.66,7.339 47.66,21.334 l 29.02,-26.661 c -17.72,-25.269 -48.65,-32.927 -77.69,-32.927 -65.29,-0.026 -99.62,35.586 -99.62,103.559 0,67.635 31.02,104.303 99.27,104.303 31.34,0 61.97,-7.977 78.65,-19.668 v -97.957 h -80.94 z"
       fill="#6b6c6b"
       id="path6" />
    <path
       d="m 751.525,505.537 c 60.972,-60.972 60.969,-159.828 -0.006,-220.803 -60.975,-60.975 -159.831,-60.977 -220.802,-0.006 -60.972,60.971 -60.969,159.828 0.006,220.802 60.974,60.975 159.831,60.978 220.802,0.007 z"
       fill="#a50034"
       id="path8" />
    <path
       d="M 679.314,449.087 H 647.406 V 329.202 h -11.797 v 131.717 h 11.824 v -0.079 h 31.908 z"
       fill="#ffffff"
       id="path10" />
    <path
       d="m 758.893,400.089 h -79.398 v -11.761 h 91.035 c 0.124,2.278 0.186,4.555 0.186,6.86 0,70.818 -57.717,128.216 -128.898,128.216 -71.181,0 -128.908,-57.372 -128.908,-128.225 0,-70.853 57.709,-128.216 128.899,-128.216 1.879,0 3.749,0.038 5.61,0.115 v 11.673 c -1.861,-0.083 -3.725,-0.124 -5.593,-0.124 -64.701,0 -117.172,52.187 -117.172,116.552 0,64.365 52.462,116.561 117.172,116.561 62.93,0 114.337,-49.377 117.058,-111.323 z"
       fill="#ffffff"
       id="path12" />
    <path
       d="m 593.752,364.69 c 3.56,-0.017 7.035,-1.089 9.987,-3.08 2.951,-1.99 5.247,-4.81 6.597,-8.104 1.351,-3.294 1.695,-6.915 0.99,-10.404 -0.706,-3.49 -2.429,-6.692 -4.952,-9.203 -2.524,-2.511 -5.735,-4.219 -9.228,-4.907 -3.492,-0.688 -7.111,-0.326 -10.398,1.04 -3.288,1.367 -6.097,3.676 -8.073,6.638 -1.976,2.961 -3.03,6.441 -3.03,10.001 0.005,2.372 0.478,4.72 1.391,6.909 0.914,2.19 2.249,4.178 3.93,5.851 1.682,1.673 3.677,2.999 5.87,3.901 2.194,0.903 4.544,1.364 6.916,1.358 z"
       fill="#ffffff"
       id="path14" />
  </g>
  <defs
     id="defs21">
    <clipPath
       id="clip0_74_1399">
      <rect
         width="709"
         height="312.253"
         fill="white"
         transform="translate(485 239)"
         id="rect18" />
    </clipPath>
  </defs>
</svg>
