<?xml version="1.0" standalone="no"?>
<!DOCTYPE svg PUBLIC "-//W3C//DTD SVG 20010904//EN"
 "http://www.w3.org/TR/2001/REC-SVG-20010904/DTD/svg10.dtd">
<svg version="1.0" xmlns="http://www.w3.org/2000/svg"
 width="70.000000pt" height="70.000000pt" viewBox="0 0 70.000000 70.000000"
 preserveAspectRatio="xMidYMid meet">

<g transform="translate(0.000000,70.000000) scale(0.100000,-0.100000)"
fill="#000000" stroke="none">
<path d="M163 590 l-43 -19 0 -66 c0 -80 19 -115 61 -115 l28 0 -25 -55 c-13
-31 -24 -60 -24 -65 0 -6 31 -10 69 -10 l69 0 12 35 c6 19 15 35 19 35 13 0
39 -34 43 -55 2 -12 12 -20 24 -21 11 -1 37 -7 57 -13 37 -12 37 -13 37 -67
l0 -54 -60 0 c-45 0 -60 3 -60 14 0 9 12 16 33 18 17 2 32 8 32 13 0 6 -15 11
-32 13 -44 4 -44 30 0 34 46 4 39 22 -10 26 l-43 3 0 -60 0 -61 -35 0 -34 0
-3 55 c-4 71 -22 71 -26 0 -2 -40 -7 -55 -17 -55 -9 0 -15 10 -15 25 0 22 -4
25 -35 25 -28 0 -35 4 -35 19 0 15 8 21 33 23 47 4 35 23 -15 23 l-43 0 0 -40
c0 -38 2 -40 33 -43 19 -2 32 -9 32 -17 0 -8 -13 -15 -32 -17 -18 -2 -31 -7
-28 -13 3 -6 87 -10 221 -10 225 0 249 4 249 44 0 27 -72 90 -129 111 -52 20
-116 74 -106 89 2 5 -2 14 -10 21 -20 17 -10 30 24 30 45 0 59 26 62 110 l2
75 -44 17 c-61 24 -181 22 -236 -2z m45 -53 l3 -37 70 0 69 0 0 35 c0 41 15
50 53 36 25 -10 27 -15 27 -66 0 -94 -1 -95 -143 -95 -82 0 -127 4 -135 12 -7
7 -12 39 -12 75 0 57 2 65 23 73 33 13 42 7 45 -33z m120 -155 c-1 -4 -11 -28
-22 -55 l-19 -47 -53 0 c-53 0 -53 0 -44 25 30 78 37 85 91 85 28 0 49 -3 47
-8z m241 -253 c-34 -21 -49 -10 -49 34 l1 42 30 -34 c24 -26 28 -35 18 -42z"/>
<path d="M202 458 c5 -15 28 -18 29 -3 0 6 -7 12 -17 13 -10 3 -15 -1 -12 -10z"/>
<path d="M330 455 c0 -8 7 -15 15 -15 8 0 15 7 15 15 0 8 -7 15 -15 15 -8 0
-15 -7 -15 -15z"/>
<path d="M485 450 c-13 -15 -16 -30 -12 -60 5 -38 4 -40 -16 -34 -20 6 -21 5
-7 -11 18 -22 71 -45 103 -45 52 0 75 70 40 120 -37 53 -77 65 -108 30z m71
-5 c28 -19 48 -69 40 -99 -8 -31 -37 -41 -79 -27 -30 10 -32 15 -35 60 -4 71
28 99 74 66z"/>
</g>
</svg>
